<?xml version="1.0" encoding="utf-8"?>
<!-- Generator: Adobe Illustrator 16.0.0, SVG Export Plug-In . SVG Version: 6.00 Build 0)  -->
<!DOCTYPE svg PUBLIC "-//W3C//DTD SVG 1.1//EN" "http://www.w3.org/Graphics/SVG/1.1/DTD/svg11.dtd">
<svg version="1.1" id="Layer_1" xmlns="http://www.w3.org/2000/svg" xmlns:xlink="http://www.w3.org/1999/xlink" x="0px" y="0px"
	 width="100px" height="95px" viewBox="0 0 100 95" enable-background="new 0 0 100 95" xml:space="preserve">
<g>
	<g>
		
			<linearGradient id="SVGID_1_" gradientUnits="userSpaceOnUse" x1="50.1016" y1="0.9995" x2="50.1016" y2="93.5386" gradientTransform="matrix(-1 0 0 -1 100.2031 94.5391)">
			<stop  offset="0" style="stop-color:#FFFFFF"/>
			<stop  offset="1" style="stop-color:#EAF1F7"/>
		</linearGradient>
		<path fill="url(#SVGID_1_)" stroke="#D5E2EE" d="M0.93,6.553C0.93,3.483,3.415,1,6.48,1h87.24c3.067,0,5.553,2.482,5.553,5.553
			v81.433c0,3.066-2.485,5.553-5.553,5.553H6.48c-3.065,0-5.551-2.486-5.551-5.553V6.553z"/>
	</g>
	<path fill="#B0C4DB" d="M44.737,70.405c-0.713,0-1.426-0.273-1.97-0.817c-1.086-1.088-1.086-2.853,0-3.942L61.145,47.27
		L42.768,28.893c-1.086-1.088-1.086-2.852,0-3.939c1.087-1.09,2.854-1.09,3.943,0L69.029,47.27L46.711,69.588
		C46.165,70.132,45.454,70.405,44.737,70.405z"/>
</g>
</svg>
