<?xml version="1.0" encoding="utf-8"?>
<!-- Generator: Adobe Illustrator 16.0.0, SVG Export Plug-In . SVG Version: 6.00 Build 0)  -->
<!DOCTYPE svg PUBLIC "-//W3C//DTD SVG 1.1//EN" "http://www.w3.org/Graphics/SVG/1.1/DTD/svg11.dtd">
<svg version="1.1" id="Layer_1" xmlns="http://www.w3.org/2000/svg" xmlns:xlink="http://www.w3.org/1999/xlink" x="0px" y="0px"
	 width="100px" height="100px" viewBox="0 0 100 100" enable-background="new 0 0 100 100" xml:space="preserve">
<g>
	<path fill="#FFFFFF" d="M90.1,46.947H10.112l2.124-33.439C12.659,9.846,15.614,3.255,23.88,3.255l53.783,0.029
		c3.153,0.409,9.257,2.969,9.78,9.707L90.1,46.947z M17.253,40.245h65.599l-2.09-26.734c-0.207-2.658-2.998-3.394-3.81-3.554H23.88
		c-4.359,0-4.922,3.728-4.971,4.153L17.253,40.245z"/>
	<path fill="#FFFFFF" d="M88.253,40.277H11.909c-6.29,0-11.382,5.097-11.382,11.38v21.813c0,5.801,4.347,10.531,9.959,11.239v4.054
		c0,4.125,3.345,7.469,7.465,7.469c4.123,0,7.468-3.344,7.468-7.469v-3.91h49.558v3.91c0,4.125,3.344,7.469,7.467,7.469
		s7.466-3.344,7.466-7.469v-4.08c5.499-0.809,9.728-5.496,9.728-11.213V51.657C99.635,45.374,94.543,40.277,88.253,40.277z
		 M16.468,61.54c-3.931,0-7.118-3.19-7.118-7.12c0-3.935,3.187-7.123,7.118-7.123c3.93,0,7.121,3.188,7.121,7.123
		C23.589,58.35,20.398,61.54,16.468,61.54z M83.689,61.54c-3.926,0-7.116-3.19-7.116-7.12c0-3.935,3.19-7.123,7.116-7.123
		c3.934,0,7.121,3.188,7.121,7.123C90.812,58.35,87.623,61.54,83.689,61.54z"/>
</g>
</svg>
