<?xml version="1.0" encoding="utf-8"?>
<!-- Generator: Adobe Illustrator 16.0.0, SVG Export Plug-In . SVG Version: 6.00 Build 0)  -->
<!DOCTYPE svg PUBLIC "-//W3C//DTD SVG 1.1//EN" "http://www.w3.org/Graphics/SVG/1.1/DTD/svg11.dtd">
<svg version="1.1" id="Layer_1" xmlns="http://www.w3.org/2000/svg" xmlns:xlink="http://www.w3.org/1999/xlink" x="0px" y="0px"
	 width="220.85px" height="30.301px" viewBox="0 0 220.85 30.301" enable-background="new 0 0 220.85 30.301" xml:space="preserve">
<g>
	<path fill="#FFFFFF" d="M164.473,6.306c-2.296,0-4.432,0.92-6.232,2.676v-0.3c0-1.479-0.132-2.177-1.334-2.177h-1.2v23.827h2.534
		v-6.997c1.491,1.09,3.203,1.583,5.427,1.583c1.867,0,7.96-0.688,7.96-9.508C171.626,7.192,166.623,6.306,164.473,6.306z
		 M163.364,22.719c-2.217,0-3.759-0.617-5.123-2.062v-8.793c1.925-2.27,3.823-3.329,5.964-3.329c3.131,0,4.854,2.501,4.854,7.041
		C169.059,21.48,165.96,22.719,163.364,22.719z"/>
	<path fill="#FFFFFF" d="M186.886,7.845c-0.562-0.554-1.293-0.957-2.149-1.2c-0.827-0.237-1.782-0.339-2.81-0.339
		c-3.504,0.019-5.476,1.033-6.757,1.763c0.948,2.005,1.95,1.514,3.246,0.957c0.994-0.427,2.141-0.606,3.349-0.606
		c0.555,0.001,1.166,0.131,1.76,0.253c0.351,0.093,0.663,0.225,0.925,0.377c0.425,0.263,0.725,0.589,0.953,1.012
		c0.224,0.426,0.346,0.989,0.346,1.71v2.618c-1.324-0.295-2.659-0.427-4.181-0.427c-1.062,0-2.039,0.101-2.943,0.317
		c-0.661,0.165-1.263,0.387-1.835,0.681c-0.818,0.448-1.49,1.057-1.965,1.816c-0.471,0.779-0.713,1.695-0.713,2.764
		c0,0.866,0.155,1.677,0.441,2.361c0.455,1.025,1.234,1.838,2.201,2.357c0.982,0.531,2.135,0.797,3.435,0.797c0,0,0,0,0.005,0
		c1.496,0,2.687-0.279,3.702-0.752c0.692-0.34,1.298-0.754,1.853-1.246c0.012,0.238,0.03,0.435,0.06,0.617
		c0.026,0.199,0.077,0.379,0.167,0.541c0.062,0.121,0.139,0.241,0.246,0.334c0.16,0.129,0.344,0.219,0.53,0.262
		c0.191,0.053,0.412,0.066,0.644,0.066h0.89V11.663c0-0.95-0.159-1.766-0.461-2.471C187.597,8.665,187.284,8.214,186.886,7.845z
		 M185.747,20.309c-0.646,0.742-1.324,1.377-2.122,1.812c-0.839,0.468-1.854,0.746-3.207,0.746c-0.549,0-1.062-0.062-1.532-0.196
		c-0.339-0.094-0.636-0.237-0.912-0.415c-0.392-0.255-0.706-0.602-0.94-1.064c-0.233-0.473-0.364-1.057-0.364-1.787
		c0-0.627,0.126-1.116,0.364-1.521c0.184-0.312,0.403-0.572,0.691-0.826c0.422-0.348,0.983-0.595,1.664-0.774
		c0.659-0.173,1.425-0.257,2.283-0.257c1.508,0,2.839,0.197,4.075,0.467V20.309L185.747,20.309z"/>
	<path fill="#FFFFFF" d="M96.225,2.651c0.566,0,1.076,0.033,1.543,0.094c1.017,0.129,1.819,0.389,2.483,0.722
		c0.022,0.012,0.047,0.023,0.068,0.035c0.084,0.043,0.164,0.088,0.245,0.132c0.118,0.071,0.235,0.141,0.344,0.212
		c0.008,0.005,0.015,0.011,0.022,0.017c0.063,0.042,0.126,0.085,0.188,0.129c0.069,0.051,0.137,0.106,0.206,0.16
		c0.188,0.154,0.364,0.309,0.536,0.453c0.185,0.153,0.362,0.291,0.541,0.398c0.647,0.395,1.299,0.397,2.299-0.731
		c-0.313-0.453-0.646-0.845-0.985-1.189c-1.66-1.688-3.48-2.162-4.221-2.387c-0.006-0.001-0.011-0.003-0.017-0.006v0.003
		c-0.517-0.125-1.084-0.214-1.71-0.272c-0.506-0.045-1.048-0.07-1.644-0.07c-5.369,0-10.786,3.792-10.786,12.267
		c0,0.021,0.001,0.044,0.001,0.067s-0.001,0.044-0.001,0.068c0,8.474,5.417,12.265,10.786,12.265c0.596,0,1.138-0.024,1.644-0.069
		c0.626-0.058,1.193-0.147,1.71-0.271v0.001c0.005-0.001,0.01-0.002,0.017-0.004c0.739-0.226,2.561-0.699,4.221-2.388
		c0.338-0.345,0.671-0.735,0.985-1.188c-1-1.129-1.651-1.128-2.299-0.732c-0.179,0.109-0.356,0.246-0.541,0.4
		c-0.172,0.144-0.349,0.297-0.536,0.451c-0.069,0.053-0.136,0.109-0.206,0.159c-0.062,0.044-0.124,0.088-0.188,0.131
		c-0.008,0.007-0.015,0.011-0.022,0.017c-0.108,0.072-0.226,0.143-0.344,0.211c-0.081,0.047-0.161,0.091-0.245,0.135
		c-0.021,0.012-0.046,0.023-0.068,0.033c-0.665,0.334-1.467,0.595-2.483,0.725c-0.467,0.061-0.978,0.094-1.543,0.094
		c-5.048,0-8.184-3.793-8.184-9.9c0-0.045,0.004-0.089,0.004-0.135s-0.004-0.089-0.004-0.134
		C88.041,6.444,91.177,2.651,96.225,2.651z"/>
	<path fill="#FFFFFF" d="M198.708,14.183c-3.609-0.607-4.218-1.398-4.218-2.942c0-1.863,1.278-2.766,3.911-2.769
		c2.174-0.003,2.896,0.58,3.559,0.878c0.66,0.3,1.213,0.368,1.913-0.471c0.093-0.11,0.187-0.235,0.285-0.377
		c-0.078-0.086-0.173-0.182-0.285-0.288c-2.263-1.963-4.521-1.908-5.505-1.908c-3.895,0-6.312,1.942-6.312,5.068
		c0,3.688,3.122,4.659,5.842,5.096c3.698,0.595,4.352,1.453,4.352,3.042c0,2.249-1.423,3.342-4.352,3.342
		c-1.334,0-2.374-0.272-3.172-0.644v0.004c-1.199-0.567-1.877-1.149-2.838-0.116c-0.138,0.148-0.28,0.33-0.432,0.549
		c0.111,0.123,0.254,0.269,0.432,0.426c0.347,0.306,0.831,0.666,1.502,1.021c0.385,0.185,0.827,0.36,1.336,0.507
		c0.866,0.25,1.928,0.42,3.238,0.42c4.376,0,6.783-2.004,6.783-5.642C204.747,15.64,201.843,14.671,198.708,14.183z"/>
	<path fill="#FFFFFF" d="M214.114,14.183c-3.609-0.607-4.219-1.398-4.219-2.942c0-1.863,1.279-2.766,3.912-2.769
		c2.173-0.003,2.897,0.58,3.56,0.878c0.659,0.3,1.213,0.368,1.913-0.471c0.093-0.11,0.187-0.235,0.284-0.377
		c-0.078-0.086-0.172-0.182-0.284-0.288c-2.263-1.963-4.522-1.908-5.506-1.908c-3.894,0-6.312,1.942-6.312,5.068
		c0,3.688,3.121,4.659,5.841,5.096c3.7,0.595,4.351,1.453,4.351,3.042c0,2.249-1.423,3.342-4.351,3.342
		c-1.333,0-2.374-0.272-3.171-0.644v0.004c-1.198-0.567-1.877-1.149-2.839-0.116c-0.137,0.148-0.279,0.33-0.432,0.549
		c0.111,0.123,0.254,0.269,0.432,0.426c0.348,0.306,0.832,0.666,1.502,1.021c0.386,0.185,0.828,0.36,1.337,0.507
		c0.866,0.25,1.928,0.42,3.239,0.42c4.375,0,6.782-2.004,6.782-5.642C220.154,15.64,217.248,14.671,214.114,14.183z"/>
	<path fill="#FFFFFF" d="M119.894,7.758c-1.355-0.964-3.05-1.459-4.955-1.453c-1.271,0-2.429,0.213-3.481,0.626
		c-1.564,0.657-2.846,1.769-3.722,3.256c-0.876,1.492-1.354,3.348-1.354,5.458c0,1.425,0.212,2.712,0.616,3.866
		c0.596,1.716,1.631,3.095,2.99,4.039c1.37,0.927,3.057,1.433,4.951,1.433c1.26,0,2.434-0.229,3.493-0.65
		c1.561-0.637,2.843-1.742,3.708-3.223c0.894-1.479,1.355-3.336,1.355-5.464c0-1.411-0.205-2.715-0.6-3.852
		C122.288,10.068,121.262,8.687,119.894,7.758z M120.518,18.738c-0.428,1.339-1.126,2.332-2.05,3.017
		c-0.938,0.685-2.118,1.047-3.529,1.047c-0.954,0-1.797-0.166-2.527-0.476c-1.092-0.458-1.948-1.256-2.561-2.367
		c-0.594-1.119-0.925-2.553-0.925-4.313c0-1.155,0.141-2.182,0.423-3.076c0.419-1.324,1.126-2.341,2.054-3.03
		c0.93-0.708,2.111-1.07,3.537-1.07c0.938,0,1.783,0.162,2.506,0.473c1.104,0.483,1.953,1.29,2.548,2.421
		c0.613,1.111,0.942,2.557,0.942,4.281C120.935,16.812,120.789,17.855,120.518,18.738z"/>
	<path fill="#FFFFFF" d="M150.455,7.693c-0.452-0.501-1.021-0.864-1.632-1.082c-0.628-0.213-1.312-0.306-2.024-0.306
		c-1.478,0-2.857,0.354-4.085,0.902c-1.025,0.47-1.938,1.046-2.749,1.68c-0.125-0.314-0.281-0.604-0.461-0.857
		c-0.454-0.609-1.062-1.066-1.748-1.343c-0.671-0.275-1.412-0.381-2.169-0.381c-1.523,0-2.919,0.381-4.132,0.95
		c-0.898,0.431-1.717,0.936-2.423,1.445V8.667c0-0.394-0.006-0.706-0.041-0.969c-0.017-0.194-0.053-0.374-0.103-0.543
		c-0.045-0.116-0.109-0.233-0.207-0.327c-0.062-0.071-0.137-0.141-0.218-0.177c-0.134-0.073-0.253-0.111-0.385-0.126
		c-0.133-0.015-0.252-0.016-0.377-0.026h-1.194v18.337h2.522v-13.67c0.854-0.692,1.736-1.322,2.68-1.795
		c1.009-0.5,2.067-0.813,3.278-0.813c0.44,0,0.838,0.042,1.183,0.129c0.263,0.072,0.479,0.18,0.67,0.303
		c0.287,0.208,0.509,0.473,0.672,0.858c0.168,0.404,0.266,0.925,0.266,1.619v13.368h2.538V11.146
		c0.841-0.672,1.729-1.297,2.66-1.772c1-0.5,2.06-0.816,3.218-0.816c0.479,0,0.896,0.042,1.246,0.129
		c0.262,0.072,0.486,0.18,0.684,0.303c0.281,0.207,0.492,0.467,0.653,0.858c0.157,0.402,0.246,0.918,0.246,1.619v13.368h2.518
		V10.998c0-0.813-0.126-1.509-0.356-2.126C151.002,8.417,150.754,8.02,150.455,7.693z"/>
	<path fill="#FFFFFF" d="M67.983,0.479H63.32l-7.465,24.393h3.803l1.603-5.252h8.868l1.61,5.252h6.611l-7.4-21.917
		C70.273,0.95,69.893,0.479,67.983,0.479z M62.326,16.029l3.336-11.133l3.379,11.133H62.326z"/>
	<path fill="#FFFFFF" d="M33.978,10.04l1.198-1.767c2.517-3.74,0.785-7.799-4.197-7.799H20.344V24.88H30.6
		C39.618,24.88,42.319,14.376,33.978,10.04z M27.821,21.621h-1.734V3.653h3.135c1.509,0,2.812,1.245,2.812,2.75
		c0,0.531-0.1,1.024-0.615,1.767l-2.032,3.048c2.126,0.509,3.547,2.129,3.547,5.156C32.933,20.055,30.731,21.621,27.821,21.621z"/>
	<path fill="#FFFFFF" d="M13.326,10.04l1.188-1.767c2.528-3.74,0.796-7.799-4.198-7.799H9.952H-0.305V24.88H9.952
		C18.962,24.88,21.688,14.376,13.326,10.04z M7.17,21.621H5.449V3.653h3.119c1.513,0,2.825,1.245,2.825,2.75
		c0,0.531-0.098,1.024-0.623,1.767l-2.043,3.048c2.133,0.509,3.552,2.129,3.552,5.156C12.28,20.055,10.081,21.621,7.17,21.621z"/>
	<path fill="#FFFFFF" d="M54.849,0.474l-5.507,18.532L44.711,3.653c-0.869-2.75-1.311-3.18-2.978-3.18h-4.307l7.983,24.398h5.861
		L58.71,0.474H54.849z"/>
</g>
</svg>
