<?xml version="1.0" encoding="utf-8"?>
<!-- Generator: Adobe Illustrator 16.0.0, SVG Export Plug-In . SVG Version: 6.00 Build 0)  -->
<!DOCTYPE svg PUBLIC "-//W3C//DTD SVG 1.1//EN" "http://www.w3.org/Graphics/SVG/1.1/DTD/svg11.dtd">
<svg version="1.1" id="Layer_1" xmlns="http://www.w3.org/2000/svg" xmlns:xlink="http://www.w3.org/1999/xlink" x="0px" y="0px"
	 width="100px" height="100px" viewBox="0 0 100 100" enable-background="new 0 0 100 100" xml:space="preserve">
<g>
	
		<rect x="27.29" y="-6.912" transform="matrix(0.6865 0.7272 -0.7272 0.6865 28.6776 -15.1013)" fill="#46A8DB" width="9.122" height="65.234"/>
	
		<rect x="40.75" y="22.083" transform="matrix(0.6851 0.7284 -0.7284 0.6851 41.7616 -43.324)" fill="#46A8DB" width="60.487" height="9.122"/>
	<polygon fill="#46A8DB" points="60.294,100.08 60.294,65.24 41.176,65.166 41.176,99.644 11.108,99.644 11.108,44.829 
		17.189,44.829 17.189,93.562 35.095,93.562 35.095,59.063 66.375,59.18 66.375,93.892 82.54,93.614 82.54,44.829 88.621,44.829 
		88.621,99.592 	"/>
	<rect x="18.534" y="12.109" fill="#46A8DB" width="10.642" height="21.455"/>
</g>
</svg>
