<?xml version="1.0" encoding="utf-8"?>
<!-- Generator: Adobe Illustrator 16.0.0, SVG Export Plug-In . SVG Version: 6.00 Build 0)  -->
<!DOCTYPE svg PUBLIC "-//W3C//DTD SVG 1.1//EN" "http://www.w3.org/Graphics/SVG/1.1/DTD/svg11.dtd">
<svg version="1.1" id="Layer_1" xmlns="http://www.w3.org/2000/svg" xmlns:xlink="http://www.w3.org/1999/xlink" x="0px" y="0px"
	 width="162px" height="47.797px" viewBox="0 0 162 47.797" enable-background="new 0 0 162 47.797" xml:space="preserve">
<g>
	<path fill="#0065B7" d="M162,35.5c0,6.627-5.373,12-12,12H12c-6.627,0-12-5.373-12-12V12C0,5.373,5.373,0,12,0h138
		c6.627,0,12,5.373,12,12V35.5z"/>
	<g>
		<path fill="#BBDEF9" d="M11.766,12.156h15.844v1.709h-13.83V24.2h10.448v1.672H13.779V37.08h14.362v1.672H11.766V12.156z"/>
		<path fill="#BBDEF9" d="M34.071,22.11c2.242-1.786,5.205-3.382,8.701-3.382c2.774,0,5.129,1.141,5.129,5.281v14.742h-1.9V24.238
			c0-3.153-1.709-3.914-3.951-3.914c-2.926,0-5.737,1.634-7.979,3.344v15.084h-1.899V18.957h0.874c0.836,0,1.026,0.228,1.026,1.976
			V22.11z"/>
		<path fill="#BBDEF9" d="M50.906,18.957h2.622v-5.51h1.899v5.51h5.281V20.4h-5.281v13.83c0,2.394,1.102,3.115,3.42,3.115h2.279
			v1.33c-0.608,0.114-1.748,0.229-2.925,0.229c-3.04,0-4.673-1.292-4.673-4.445V20.4h-2.622V18.957z"/>
		<path fill="#BBDEF9" d="M72.07,37.346c3.153,0,5.091-0.987,6.154-2.051h0.836V36.7c-1.405,1.102-3.571,2.204-7.181,2.204
			c-5.965,0-9.271-3.838-9.271-9.993c0-6.23,3.723-10.183,8.776-10.183c4.863,0,8.131,2.812,8.131,9.271
			c0,0.38-0.038,0.835-0.038,0.911H64.547C64.547,34.459,67.131,37.346,72.07,37.346z M64.585,27.468h13.032
			c-0.114-5.281-2.546-7.295-6.231-7.295C67.738,20.173,65.041,22.604,64.585,27.468z"/>
		<path fill="#BBDEF9" d="M85.333,22.376c1.52-1.823,3.685-3.571,6.497-3.571c0.493,0,0.835,0.076,0.911,0.114v1.558
			c0,0-0.493-0.038-0.836-0.038c-2.888,0-4.977,1.862-6.572,3.724v14.59h-1.9V18.957h0.874c0.836,0,1.026,0.228,1.026,2.166V22.376z
			"/>
		<path fill="#BBDEF9" d="M107.219,36.055c-1.672,1.747-3.496,2.888-6.763,2.888c-3.686,0-6.384-2.015-6.384-5.737
			c0-3.989,3.306-5.813,7.941-5.813c1.899,0,3.571,0.19,5.205,0.608v-3.572c0-3.077-1.976-4.179-4.863-4.179
			c-2.926,0-4.901,0.76-6.155,1.747h-0.798v-1.558c1.596-0.874,3.8-1.71,7.029-1.71c4.027,0,6.687,1.482,6.687,5.586v14.438h-0.532
			c-1.102,0-1.367-0.342-1.367-1.938V36.055z M107.219,34.23v-4.863c-1.52-0.342-3.191-0.607-5.092-0.607
			c-3.495,0-6.117,1.254-6.117,4.293c0,3.153,2.052,4.407,4.712,4.407C103.913,37.46,105.661,36.093,107.219,34.23z"/>
	</g>
	<g>
		<path fill="#FFFFFF" d="M116.9,15.218h2.834v-6.39h4.59v6.39h5.221v3.24h-5.221v13.949c0,2.476,1.035,3.194,3.375,3.194h2.115
			v2.971c-0.855,0.225-2.16,0.449-3.734,0.449c-4.006,0-6.346-1.664-6.346-6.074V18.458H116.9V15.218z"/>
		<path fill="#FFFFFF" d="M132.379,16.523v-1.305h4.275l6.659,17.999h0.09l6.345-17.999h3.96v1.305l-8.324,22.229h-4.455
			L132.379,16.523z"/>
	</g>
	<polygon fill="#FFFFFF" points="75.75,13.317 69.562,9.489 69.562,17.25 	"/>
</g>
</svg>
