<?xml version="1.0" encoding="utf-8"?>
<!-- Generator: Adobe Illustrator 16.0.0, SVG Export Plug-In . SVG Version: 6.00 Build 0)  -->
<!DOCTYPE svg PUBLIC "-//W3C//DTD SVG 1.1//EN" "http://www.w3.org/Graphics/SVG/1.1/DTD/svg11.dtd">
<svg version="1.1" id="Layer_1" xmlns="http://www.w3.org/2000/svg" xmlns:xlink="http://www.w3.org/1999/xlink" x="0px" y="0px"
	 width="654.498px" height="190.601px" viewBox="0 0 654.498 190.601" enable-background="new 0 0 654.498 190.601"
	 xml:space="preserve">
<g>
	<g>
		<path fill="#002F87" d="M252.607,96.918h-11.363l-18.192,59.45h9.266l3.905-12.802h21.612l3.927,12.802h16.112l-18.037-53.416
			C258.189,98.065,257.263,96.918,252.607,96.918z M238.821,134.815l8.132-27.132l8.235,27.132H238.821z"/>
		<path fill="#002F87" d="M169.734,120.218l2.917-4.307c6.136-9.113,1.913-19.006-10.226-19.006h-25.921v59.48h24.995
			C183.478,156.386,190.062,130.789,169.734,120.218z M154.729,148.444H150.5v-43.79h7.639c3.68,0,6.854,3.034,6.854,6.7
			c0,1.293-0.242,2.498-1.501,4.306l-4.951,7.431c5.183,1.24,8.646,5.189,8.646,12.564
			C167.187,144.624,161.819,148.444,154.729,148.444z"/>
		<path fill="#002F87" d="M119.403,120.218l2.897-4.307c6.159-9.113,1.938-19.006-10.233-19.006h-0.889H86.18v59.48h24.998
			C133.136,156.386,139.781,130.789,119.403,120.218z M104.399,148.444h-4.194v-43.79h7.603c3.685,0,6.884,3.034,6.884,6.7
			c0,1.293-0.238,2.498-1.519,4.306l-4.98,7.431c5.199,1.24,8.66,5.189,8.66,12.564
			C116.854,144.624,111.494,148.444,104.399,148.444z"/>
		<path fill="#002F87" d="M220.599,96.905l-13.42,45.166l-11.29-37.417c-2.116-6.703-3.192-7.749-7.253-7.749h-10.497l19.456,59.463
			h14.289l18.124-59.463H220.599z"/>
		<g>
			<path fill="#002F87" stroke="#002F87" stroke-miterlimit="10" d="M294.338,95.201h16.709c2.606,0,5.048,0.24,7.325,0.72
				c2.278,0.48,4.26,1.281,5.948,2.404c1.687,1.123,3.011,2.63,3.971,4.52c0.96,1.891,1.441,4.233,1.441,7.027
				c0,2-0.268,3.713-0.803,5.139c-0.536,1.422-1.276,2.649-2.222,3.676c-0.947,1.028-2.059,1.877-3.334,2.549
				c-1.275,0.67-2.642,1.253-4.095,1.746v0.082c1.838,0.412,3.567,0.955,5.185,1.627c1.619,0.672,3.032,1.583,4.24,2.734
				c1.207,1.154,2.161,2.58,2.86,4.282c0.7,1.7,1.05,3.772,1.05,6.214c0,2.854-0.493,5.303-1.481,7.346
				c-0.988,2.044-2.381,3.725-4.178,5.043c-1.797,1.316-3.938,2.289-6.419,2.922c-2.484,0.631-5.207,0.945-8.17,0.945h-18.026
				V95.201z M310.758,121.376c1.976,0,3.841-0.191,5.598-0.577c1.755-0.384,3.292-1.021,4.609-1.911
				c1.317-0.893,2.352-2.059,3.107-3.501c0.754-1.44,1.131-3.228,1.131-5.37c0-2.166-0.377-3.963-1.131-5.391
				c-0.755-1.426-1.785-2.564-3.087-3.417c-1.303-0.85-2.819-1.448-4.547-1.79c-1.729-0.342-3.554-0.514-5.474-0.514h-12.141v22.471
				H310.758z M312.281,150.473c2.25,0,4.335-0.238,6.256-0.72c1.92-0.479,3.581-1.234,4.98-2.264
				c1.399-1.027,2.489-2.346,3.271-3.951c0.782-1.605,1.173-3.531,1.173-5.781s-0.384-4.178-1.153-5.783
				c-0.768-1.605-1.872-2.914-3.312-3.93c-1.44-1.014-3.189-1.764-5.247-2.243c-2.059-0.48-4.377-0.72-6.956-0.72h-12.47v25.392
				H312.281z"/>
			<path fill="#002F87" stroke="#002F87" stroke-miterlimit="10" d="M368.418,148.21c-0.934,0.961-1.895,1.838-2.881,2.633
				c-0.988,0.798-2.079,1.47-3.272,2.018c-1.194,0.549-2.518,0.975-3.972,1.275c-1.455,0.301-3.086,0.453-4.898,0.453
				c-2.03,0-3.909-0.275-5.638-0.824c-1.729-0.549-3.225-1.361-4.486-2.432c-1.263-1.072-2.25-2.404-2.964-3.999
				c-0.713-1.595-1.069-3.422-1.069-5.481c0-2.227,0.438-4.149,1.316-5.772c0.878-1.622,2.099-2.96,3.663-4.019
				c1.564-1.059,3.423-1.842,5.577-2.35c2.153-0.508,4.506-0.764,7.058-0.764c2.14,0,4.15,0.104,6.029,0.311
				c1.879,0.205,3.725,0.541,5.536,1.008v-7.886c0-1.696-0.262-3.134-0.783-4.311c-0.522-1.175-1.259-2.126-2.207-2.853
				c-0.948-0.725-2.089-1.252-3.421-1.58c-1.333-0.329-2.796-0.494-4.39-0.494c-3.271,0-6.019,0.373-8.245,1.113
				c-2.227,0.74-4.041,1.66-5.441,2.757h-1.77v-3.458c0.878-0.494,1.852-0.967,2.923-1.418c1.071-0.453,2.246-0.85,3.524-1.193
				c1.277-0.344,2.679-0.623,4.205-0.846c1.524-0.219,3.18-0.328,4.966-0.328c2.225,0,4.251,0.221,6.079,0.658
				c1.828,0.439,3.394,1.146,4.698,2.121c1.306,0.975,2.309,2.25,3.01,3.826c0.7,1.578,1.051,3.506,1.051,5.783v32.018h-1.152
				c-0.631,0-1.139-0.055-1.522-0.164s-0.693-0.322-0.927-0.639c-0.232-0.314-0.391-0.754-0.473-1.316s-0.123-1.282-0.123-2.16
				V148.21z M353.989,151.297c1.759,0,3.339-0.179,4.741-0.536c1.402-0.355,2.679-0.85,3.834-1.481
				c1.154-0.63,2.198-1.385,3.132-2.263c0.935-0.877,1.841-1.838,2.722-2.881v-10.782c-1.705-0.386-3.485-0.708-5.339-0.968
				c-1.855-0.262-3.841-0.393-5.957-0.393c-1.952,0-3.758,0.18-5.421,0.536c-1.663,0.356-3.099,0.927-4.308,1.708
				c-1.209,0.782-2.158,1.776-2.845,2.984c-0.686,1.207-1.03,2.647-1.03,4.32c0,1.758,0.268,3.252,0.804,4.486
				c0.536,1.234,1.27,2.242,2.205,3.025c0.935,0.781,2.041,1.352,3.319,1.707C351.124,151.118,352.505,151.297,353.989,151.297z"/>
			<path fill="#002F87" stroke="#002F87" stroke-miterlimit="10" d="M388.707,117.261c1.232-0.988,2.568-1.935,4.008-2.84
				c1.438-0.904,2.966-1.699,4.582-2.388c1.617-0.685,3.314-1.234,5.096-1.645c1.781-0.412,3.643-0.618,5.59-0.618
				c1.537,0,2.988,0.178,4.355,0.535c1.371,0.355,2.576,0.982,3.619,1.873c1.041,0.891,1.863,2.085,2.465,3.58
				c0.604,1.494,0.906,3.394,0.906,5.699v32.719h-4.199v-32.184c0-1.755-0.225-3.195-0.678-4.32s-1.07-2.01-1.85-2.654
				c-0.781-0.646-1.705-1.092-2.775-1.338c-1.066-0.246-2.217-0.372-3.449-0.372c-1.617,0-3.213,0.208-4.787,0.618
				c-1.576,0.412-3.109,0.967-4.604,1.668c-1.492,0.699-2.938,1.494-4.335,2.387c-1.396,0.892-2.712,1.803-3.944,2.734v33.461h-4.28
				v-43.914h1.995c0.471,0,0.852,0.051,1.142,0.146c0.292,0.097,0.52,0.296,0.687,0.597c0.166,0.301,0.283,0.742,0.353,1.316
				c0.069,0.577,0.104,1.346,0.104,2.307V117.261z"/>
			<path fill="#002F87" stroke="#002F87" stroke-miterlimit="10" d="M448.344,154.507c-3.211,0-6.092-0.521-8.645-1.564
				c-2.553-1.042-4.705-2.531-6.461-4.465c-1.756-1.936-3.1-4.287-4.033-7.059c-0.934-2.77-1.398-5.885-1.398-9.343
				c0-3.456,0.506-6.563,1.521-9.321c1.016-2.759,2.441-5.096,4.281-7.018c1.838-1.92,4.031-3.396,6.582-4.424
				c2.555-1.029,5.352-1.543,8.398-1.543c1.811,0,3.43,0.123,4.855,0.371c1.426,0.247,2.697,0.57,3.807,0.967
				c1.113,0.398,2.078,0.85,2.9,1.358c0.824,0.507,1.553,1.007,2.182,1.501v3.375h-2.182c-0.492-0.494-1.088-0.994-1.787-1.501
				c-0.701-0.509-1.518-0.96-2.451-1.358c-0.932-0.396-2.01-0.721-3.23-0.967c-1.219-0.247-2.613-0.373-4.178-0.373
				c-2.441,0-4.67,0.427-6.688,1.277c-2.016,0.852-3.744,2.086-5.184,3.703c-1.441,1.621-2.561,3.604-3.355,5.947
				c-0.797,2.348-1.193,5.016-1.193,8.005c0,3.019,0.379,5.708,1.131,8.067c0.756,2.359,1.838,4.356,3.252,5.988
				c1.412,1.633,3.135,2.873,5.164,3.725c2.031,0.852,4.322,1.275,6.873,1.275c1.701,0,3.223-0.158,4.57-0.473
				c1.344-0.315,2.529-0.713,3.559-1.193s1.912-1.023,2.654-1.627s1.373-1.193,1.895-1.77h1.932v3.21
				c-0.631,0.604-1.391,1.215-2.281,1.831c-0.893,0.618-1.949,1.181-3.17,1.688c-1.221,0.509-2.605,0.921-4.158,1.236
				C451.957,154.348,450.234,154.507,448.344,154.507z"/>
			<path fill="#002F87" stroke="#002F87" stroke-miterlimit="10" d="M488.611,154.507c-3.041,0-5.811-0.514-8.305-1.544
				c-2.494-1.028-4.633-2.503-6.414-4.423c-1.779-1.921-3.164-4.26-4.152-7.018c-0.984-2.757-1.479-5.879-1.479-9.363
				c0-3.457,0.494-6.564,1.479-9.322c0.988-2.758,2.373-5.104,4.152-7.038c1.781-1.935,3.92-3.421,6.414-4.464
				s5.264-1.564,8.305-1.564c3.07,0,5.865,0.521,8.389,1.564c2.521,1.043,4.674,2.529,6.455,4.464s3.164,4.28,4.154,7.038
				c0.984,2.758,1.479,5.865,1.479,9.322c0,3.484-0.494,6.606-1.479,9.363c-0.99,2.758-2.373,5.097-4.154,7.018
				c-1.781,1.92-3.934,3.395-6.455,4.423C494.477,153.993,491.682,154.507,488.611,154.507z M488.633,151.214
				c2.498,0,4.748-0.424,6.75-1.275c2.004-0.851,3.703-2.092,5.104-3.725c1.4-1.631,2.469-3.629,3.209-5.988
				c0.742-2.359,1.111-5.049,1.111-8.066c0-2.99-0.369-5.666-1.111-8.024c-0.74-2.361-1.809-4.364-3.209-6.011
				c-1.4-1.645-3.1-2.9-5.104-3.766c-2.002-0.863-4.252-1.297-6.75-1.297c-2.469,0-4.699,0.434-6.688,1.297
				c-1.99,0.865-3.684,2.121-5.082,3.766c-1.4,1.646-2.471,3.649-3.211,6.011c-0.74,2.358-1.109,5.034-1.109,8.024
				c0,3.018,0.369,5.707,1.109,8.066s1.811,4.357,3.211,5.988c1.398,1.633,3.092,2.874,5.082,3.725
				C483.934,150.79,486.164,151.214,488.633,151.214z"/>
			<path fill="#002F87" stroke="#002F87" stroke-miterlimit="10" d="M522.217,116.931c1.041-0.849,2.197-1.701,3.471-2.551
				c1.275-0.85,2.645-1.619,4.111-2.304c1.467-0.688,3.025-1.243,4.686-1.668c1.656-0.425,3.404-0.638,5.238-0.638
				c1.178,0,2.328,0.131,3.453,0.391c1.121,0.262,2.143,0.68,3.061,1.256c0.916,0.576,1.719,1.324,2.404,2.242
				c0.684,0.92,1.193,2.037,1.52,3.354c1.1-0.932,2.312-1.839,3.643-2.716c1.332-0.878,2.738-1.652,4.219-2.326
				c1.482-0.672,3.047-1.207,4.691-1.604c1.646-0.397,3.361-0.597,5.146-0.597c1.479,0,2.881,0.191,4.197,0.575
				c1.316,0.386,2.471,1.011,3.455,1.874c0.988,0.863,1.77,1.975,2.348,3.332c0.576,1.357,0.863,3.025,0.863,5.002v33.623h-4.195
				v-32.554c0-1.62-0.193-2.964-0.578-4.032c-0.385-1.072-0.926-1.921-1.627-2.551c-0.697-0.631-1.557-1.079-2.572-1.339
				c-1.014-0.26-2.152-0.393-3.414-0.393c-1.566,0-3.053,0.2-4.467,0.599c-1.412,0.397-2.77,0.924-4.074,1.584
				c-1.303,0.658-2.559,1.413-3.766,2.264c-1.207,0.85-2.387,1.727-3.539,2.634v33.788h-4.197v-32.554
				c0-1.62-0.201-2.964-0.596-4.032c-0.398-1.072-0.959-1.921-1.684-2.551c-0.727-0.631-1.582-1.079-2.568-1.339
				s-2.068-0.393-3.246-0.393c-1.615,0-3.145,0.2-4.582,0.599c-1.438,0.397-2.814,0.924-4.127,1.584
				c-1.316,0.658-2.576,1.418-3.781,2.283s-2.369,1.766-3.492,2.697v33.705h-4.281v-43.914h1.994c0.473,0,0.854,0.051,1.143,0.146
				c0.291,0.097,0.52,0.296,0.688,0.597c0.166,0.301,0.285,0.742,0.352,1.316c0.07,0.577,0.105,1.346,0.105,2.307V116.931z"/>
			<path fill="#002F87" stroke="#002F87" stroke-miterlimit="10" d="M591.441,132.364c0,6.202,1.404,10.865,4.217,13.993
				s6.977,4.692,12.49,4.692c1.756,0,3.342-0.124,4.756-0.371c1.41-0.248,2.682-0.582,3.807-1.009
				c1.125-0.425,2.104-0.911,2.943-1.46c0.834-0.549,1.541-1.111,2.117-1.688h1.852v3.086c-0.766,0.631-1.65,1.234-2.654,1.812
				c-1,0.574-2.154,1.098-3.455,1.563c-1.303,0.466-2.766,0.837-4.385,1.11c-1.619,0.274-3.428,0.412-5.432,0.412
				c-3.293,0-6.215-0.514-8.768-1.544c-2.551-1.028-4.697-2.503-6.439-4.423c-1.744-1.921-3.066-4.246-3.973-6.977
				c-0.904-2.73-1.357-5.797-1.357-9.199c0-3.457,0.486-6.578,1.461-9.361c0.973-2.785,2.326-5.158,4.053-7.121
				c1.73-1.961,3.787-3.471,6.174-4.525c2.389-1.057,4.98-1.586,7.779-1.586c2.689,0,5.145,0.398,7.367,1.193
				c2.223,0.797,4.123,2.029,5.699,3.703c1.578,1.675,2.799,3.809,3.664,6.4s1.297,5.674,1.297,9.24
				c0,0.439-0.016,0.863-0.041,1.275c-0.029,0.41-0.043,0.672-0.043,0.781H591.441z M606.627,112.981
				c-2.031,0-3.91,0.334-5.639,1.008c-1.729,0.672-3.252,1.681-4.568,3.024c-1.316,1.343-2.4,3.032-3.252,5.062
				c-0.848,2.03-1.398,4.39-1.645,7.078h28.934c-0.084-2.935-0.469-5.425-1.154-7.469s-1.625-3.712-2.82-5.001
				c-1.193-1.291-2.627-2.229-4.299-2.82C610.51,113.276,608.658,112.981,606.627,112.981z"/>
			<path fill="#002F87" stroke="#002F87" stroke-miterlimit="10" d="M637.576,117.837c0.85-1.016,1.783-1.995,2.797-2.943
				c1.016-0.947,2.127-1.789,3.334-2.531c1.207-0.741,2.498-1.328,3.869-1.77c1.371-0.438,2.84-0.659,4.404-0.659
				c0.549,0,1.002,0.028,1.357,0.083c0.357,0.057,0.578,0.11,0.66,0.164v3.457c-0.193,0-0.4-0.012-0.619-0.039
				c-0.191,0-0.396-0.007-0.617-0.021c-0.219-0.014-0.424-0.021-0.617-0.021c-1.592,0-3.08,0.233-4.465,0.701
				c-1.385,0.467-2.682,1.091-3.891,1.871c-1.207,0.781-2.324,1.666-3.354,2.656c-1.027,0.986-1.982,2.002-2.859,3.045v32.348
				h-4.281v-43.914h1.994c0.473,0,0.854,0.051,1.143,0.146c0.291,0.097,0.52,0.308,0.688,0.638c0.166,0.33,0.285,0.817,0.352,1.461
				c0.07,0.645,0.105,1.502,0.105,2.572V117.837z"/>
		</g>
	</g>
	<g>
		<g>
			<defs>
				<rect id="SVGID_1_" width="31" height="31.853"/>
			</defs>
			<use xlink:href="#SVGID_1_"  overflow="visible" fill="#01418B"/>
			<clipPath id="SVGID_2_">
				<use xlink:href="#SVGID_1_"  overflow="visible"/>
			</clipPath>
			<rect clip-path="url(#SVGID_2_)" fill="#01418B" width="31" height="31.853"/>
		</g>
		<rect y="95.055" fill="#3CADE9" width="31" height="31.843"/>
		<g>
			<defs>
				<rect id="SVGID_3_" y="126.897" width="31" height="31.848"/>
			</defs>
			<use xlink:href="#SVGID_3_"  overflow="visible" fill="#7FCEF7"/>
			<clipPath id="SVGID_4_">
				<use xlink:href="#SVGID_3_"  overflow="visible"/>
			</clipPath>
			<rect y="126.897" clip-path="url(#SVGID_4_)" fill="#7FCEF7" width="31" height="31.847"/>
		</g>
		<g>
			<defs>
				<rect id="SVGID_5_" y="158.743" width="31" height="31.855"/>
			</defs>
			<use xlink:href="#SVGID_5_"  overflow="visible" fill="#B2E1FB"/>
			<clipPath id="SVGID_6_">
				<use xlink:href="#SVGID_5_"  overflow="visible"/>
			</clipPath>
			<rect y="158.743" clip-path="url(#SVGID_6_)" fill="#B2E1FB" width="31" height="31.855"/>
		</g>
		<g>
			<defs>
				<rect id="SVGID_7_" y="63.2" width="31" height="31.85"/>
			</defs>
			<use xlink:href="#SVGID_7_"  overflow="visible" fill="#0093E0"/>
			<clipPath id="SVGID_8_">
				<use xlink:href="#SVGID_7_"  overflow="visible"/>
			</clipPath>
			<rect y="63.198" clip-path="url(#SVGID_8_)" fill="#0093E0" width="31" height="31.85"/>
		</g>
		<g>
			<defs>
				<rect id="SVGID_9_" y="31.346" width="31" height="31.854"/>
			</defs>
			<use xlink:href="#SVGID_9_"  overflow="visible" fill="#0065B7"/>
			<clipPath id="SVGID_10_">
				<use xlink:href="#SVGID_9_"  overflow="visible"/>
			</clipPath>
			<rect y="31.346" clip-path="url(#SVGID_10_)" fill="#0065B7" width="31" height="31.854"/>
		</g>
	</g>
</g>
</svg>
