<?xml version="1.0" encoding="utf-8"?>
<!-- Generator: Adobe Illustrator 16.0.0, SVG Export Plug-In . SVG Version: 6.00 Build 0)  -->
<!DOCTYPE svg PUBLIC "-//W3C//DTD SVG 1.1//EN" "http://www.w3.org/Graphics/SVG/1.1/DTD/svg11.dtd">
<svg version="1.1" id="Layer_1" xmlns="http://www.w3.org/2000/svg" xmlns:xlink="http://www.w3.org/1999/xlink" x="0px" y="0px"
	 width="568.317px" height="61.684px" viewBox="0 0 568.317 61.684" enable-background="new 0 0 568.317 61.684"
	 xml:space="preserve">
<g>
	<g>
		<path fill="#FFFFFF" d="M165.927,1.717h-11.363l-18.192,59.45h9.266l3.905-12.803h21.612l3.927,12.803h16.112L173.157,7.751
			C171.509,2.864,170.583,1.717,165.927,1.717z M152.141,39.614l8.132-27.132l8.235,27.132H152.141z"/>
		<path fill="#FFFFFF" d="M83.054,25.017l2.917-4.307c6.136-9.113,1.913-19.007-10.226-19.007H49.824v59.479h24.995
			C96.798,61.184,103.382,35.588,83.054,25.017z M68.049,53.242H63.82V9.452h7.639c3.68,0,6.854,3.034,6.854,6.7
			c0,1.293-0.242,2.498-1.501,4.307l-4.951,7.431c5.183,1.24,8.646,5.188,8.646,12.563C80.507,49.423,75.139,53.242,68.049,53.242z"
			/>
		<path fill="#FFFFFF" d="M32.723,25.017l2.897-4.307c6.159-9.113,1.938-19.007-10.233-19.007h-0.889H-0.5v59.479h24.998
			C46.457,61.184,53.102,35.588,32.723,25.017z M17.719,53.242h-4.194V9.452h7.603c3.685,0,6.884,3.034,6.884,6.7
			c0,1.293-0.238,2.498-1.519,4.307l-4.98,7.431c5.199,1.24,8.66,5.188,8.66,12.563C30.174,49.423,24.814,53.242,17.719,53.242z"/>
		<path fill="#FFFFFF" d="M133.919,1.703L120.5,46.869l-11.29-37.417c-2.116-6.702-3.192-7.749-7.253-7.749H91.459l19.456,59.464
			h14.289l18.124-59.464H133.919z"/>
		<g>
			<path fill="#FFFFFF" d="M207.659,0h16.709c2.605,0,5.047,0.239,7.324,0.72c2.279,0.479,4.26,1.281,5.949,2.404
				c1.686,1.123,3.01,2.63,3.971,4.52c0.959,1.892,1.441,4.233,1.441,7.027c0,2-0.27,3.713-0.805,5.139
				c-0.537,1.423-1.275,2.649-2.223,3.677s-2.059,1.877-3.334,2.549c-1.275,0.671-2.641,1.254-4.094,1.746v0.082
				c1.838,0.412,3.564,0.955,5.184,1.627c1.619,0.673,3.033,1.583,4.24,2.733c1.207,1.154,2.162,2.58,2.859,4.282
				c0.699,1.7,1.051,3.771,1.051,6.214c0,2.854-0.492,5.304-1.48,7.347c-0.988,2.044-2.381,3.726-4.178,5.043
				c-1.797,1.315-3.939,2.289-6.42,2.922c-2.484,0.632-5.207,0.944-8.17,0.944h-18.025V0L207.659,0z M224.079,26.175
				c1.977,0,3.84-0.19,5.6-0.577c1.754-0.384,3.291-1.021,4.607-1.91c1.316-0.894,2.354-2.06,3.107-3.502
				c0.754-1.438,1.131-3.228,1.131-5.369c0-2.166-0.377-3.963-1.131-5.392c-0.756-1.426-1.785-2.563-3.088-3.417
				c-1.305-0.851-2.818-1.448-4.549-1.79c-1.729-0.342-3.553-0.515-5.473-0.515h-12.142v22.472H224.079L224.079,26.175z
				 M225.602,55.272c2.25,0,4.334-0.238,6.256-0.721c1.92-0.479,3.58-1.233,4.979-2.265c1.398-1.026,2.488-2.346,3.271-3.95
				c0.781-1.604,1.172-3.531,1.172-5.781s-0.383-4.178-1.152-5.782c-0.768-1.604-1.873-2.914-3.312-3.931
				c-1.439-1.015-3.189-1.765-5.246-2.243c-2.059-0.479-4.377-0.72-6.957-0.72h-12.47v25.393H225.602z"/>
			<path fill="#FFFFFF" d="M281.739,53.009c-0.934,0.961-1.895,1.838-2.881,2.633c-0.988,0.799-2.08,1.471-3.273,2.019
				c-1.191,0.55-2.518,0.976-3.971,1.274c-1.455,0.302-3.086,0.453-4.898,0.453c-2.029,0-3.908-0.274-5.639-0.823
				c-1.729-0.55-3.225-1.36-4.484-2.433c-1.264-1.072-2.25-2.404-2.965-3.999c-0.713-1.595-1.068-3.422-1.068-5.48
				c0-2.228,0.438-4.148,1.314-5.771c0.879-1.622,2.102-2.96,3.664-4.02c1.564-1.06,3.422-1.843,5.576-2.351
				s4.506-0.764,7.059-0.764c2.141,0,4.15,0.104,6.029,0.311c1.879,0.205,3.727,0.541,5.535,1.009V27.18
				c0-1.695-0.262-3.134-0.783-4.312c-0.52-1.175-1.258-2.126-2.207-2.854c-0.945-0.725-2.088-1.252-3.42-1.58
				c-1.334-0.328-2.797-0.493-4.391-0.493c-3.271,0-6.02,0.373-8.244,1.112c-2.227,0.74-4.041,1.66-5.441,2.758h-1.77v-3.458
				c0.877-0.494,1.852-0.968,2.922-1.419c1.072-0.452,2.246-0.85,3.525-1.192c1.275-0.344,2.678-0.623,4.205-0.846
				c1.521-0.22,3.18-0.328,4.965-0.328c2.225,0,4.252,0.222,6.08,0.657c1.826,0.439,3.393,1.146,4.695,2.121
				c1.309,0.976,2.311,2.25,3.012,3.826c0.699,1.578,1.051,3.506,1.051,5.783v32.018h-1.152c-0.631,0-1.139-0.055-1.52-0.164
				c-0.385-0.108-0.693-0.321-0.93-0.639c-0.23-0.313-0.391-0.754-0.473-1.315s-0.123-1.282-0.123-2.16V53.009L281.739,53.009z
				 M267.309,56.096c1.76,0,3.34-0.179,4.742-0.536c1.4-0.354,2.678-0.85,3.834-1.479c1.152-0.631,2.195-1.386,3.131-2.264
				c0.936-0.877,1.842-1.838,2.723-2.882V38.154c-1.705-0.387-3.486-0.708-5.34-0.969c-1.855-0.262-3.84-0.393-5.957-0.393
				c-1.951,0-3.758,0.18-5.42,0.535c-1.664,0.355-3.102,0.928-4.311,1.708c-1.209,0.782-2.156,1.776-2.844,2.983
				c-0.686,1.207-1.031,2.647-1.031,4.32c0,1.758,0.27,3.252,0.807,4.485c0.535,1.233,1.27,2.242,2.205,3.024
				c0.934,0.781,2.041,1.353,3.316,1.707C264.444,55.917,265.825,56.096,267.309,56.096z"/>
			<path fill="#FFFFFF" d="M302.028,22.059c1.232-0.987,2.568-1.935,4.008-2.84c1.438-0.903,2.965-1.698,4.582-2.388
				c1.617-0.686,3.314-1.234,5.096-1.646c1.781-0.412,3.645-0.618,5.592-0.618c1.535,0,2.986,0.179,4.354,0.535
				c1.371,0.354,2.576,0.981,3.619,1.873c1.041,0.891,1.863,2.085,2.465,3.579c0.604,1.494,0.906,3.395,0.906,5.699v32.719h-4.199
				V26.789c0-1.756-0.225-3.195-0.678-4.32s-1.07-2.01-1.852-2.653c-0.779-0.646-1.705-1.093-2.773-1.338
				c-1.066-0.246-2.217-0.372-3.449-0.372c-1.617,0-3.213,0.208-4.787,0.617c-1.576,0.412-3.107,0.968-4.604,1.668
				c-1.492,0.699-2.939,1.494-4.336,2.388c-1.396,0.893-2.711,1.804-3.943,2.733v33.461h-4.281V15.06h1.996
				c0.471,0,0.854,0.051,1.143,0.146c0.293,0.097,0.52,0.296,0.688,0.597c0.166,0.302,0.283,0.742,0.354,1.315
				c0.068,0.577,0.104,1.347,0.104,2.308L302.028,22.059L302.028,22.059z"/>
			<path fill="#FFFFFF" d="M361.665,59.306c-3.211,0-6.092-0.521-8.645-1.563s-4.705-2.53-6.461-4.465
				c-1.756-1.937-3.102-4.287-4.033-7.06c-0.934-2.771-1.398-5.885-1.398-9.343c0-3.456,0.508-6.562,1.521-9.321
				c1.016-2.759,2.439-5.096,4.281-7.019c1.838-1.92,4.029-3.396,6.582-4.424c2.555-1.028,5.352-1.543,8.396-1.543
				c1.812,0,3.43,0.123,4.855,0.371c1.426,0.247,2.695,0.569,3.807,0.967c1.113,0.397,2.078,0.851,2.9,1.357
				c0.822,0.508,1.553,1.008,2.182,1.501v3.375h-2.182c-0.492-0.493-1.088-0.993-1.787-1.501c-0.701-0.509-1.52-0.96-2.451-1.357
				c-0.932-0.396-2.01-0.721-3.23-0.967c-1.219-0.247-2.611-0.373-4.178-0.373c-2.439,0-4.67,0.427-6.688,1.276
				c-2.018,0.853-3.744,2.086-5.186,3.703c-1.439,1.621-2.561,3.604-3.354,5.946c-0.797,2.349-1.193,5.017-1.193,8.006
				c0,3.019,0.379,5.708,1.131,8.066c0.756,2.358,1.838,4.355,3.252,5.987c1.412,1.634,3.137,2.873,5.164,3.726
				c2.031,0.853,4.322,1.274,6.873,1.274c1.701,0,3.225-0.157,4.57-0.474c1.344-0.314,2.529-0.713,3.559-1.192
				s1.912-1.022,2.654-1.627s1.373-1.192,1.895-1.771h1.934v3.21c-0.631,0.604-1.393,1.216-2.281,1.831
				c-0.893,0.618-1.949,1.182-3.17,1.688c-1.221,0.51-2.605,0.921-4.158,1.235C365.278,59.147,363.555,59.306,361.665,59.306z"/>
			<path fill="#FFFFFF" d="M401.932,59.306c-3.041,0-5.812-0.514-8.307-1.544c-2.494-1.027-4.633-2.503-6.414-4.423
				c-1.777-1.921-3.164-4.261-4.15-7.019c-0.984-2.757-1.48-5.879-1.48-9.362c0-3.457,0.494-6.564,1.48-9.322
				s2.373-5.104,4.15-7.038c1.781-1.936,3.92-3.421,6.414-4.464s5.266-1.563,8.307-1.563c3.068,0,5.863,0.521,8.389,1.563
				c2.521,1.043,4.674,2.528,6.455,4.464s3.164,4.28,4.154,7.038c0.982,2.758,1.479,5.865,1.479,9.322
				c0,3.483-0.494,6.605-1.479,9.362c-0.99,2.758-2.373,5.098-4.154,7.019c-1.781,1.92-3.934,3.396-6.455,4.423
				C407.797,58.792,405.002,59.306,401.932,59.306z M401.954,56.013c2.498,0,4.748-0.424,6.75-1.274
				c2.004-0.852,3.703-2.092,5.104-3.726c1.398-1.631,2.469-3.629,3.209-5.987c0.742-2.358,1.109-5.05,1.109-8.065
				c0-2.99-0.367-5.666-1.109-8.024c-0.74-2.36-1.811-4.363-3.209-6.011c-1.4-1.646-3.102-2.899-5.104-3.767
				c-2.002-0.862-4.252-1.297-6.75-1.297c-2.469,0-4.699,0.435-6.688,1.297c-1.99,0.865-3.686,2.121-5.082,3.767
				c-1.4,1.646-2.473,3.648-3.211,6.011c-0.74,2.358-1.109,5.034-1.109,8.024c0,3.018,0.369,5.707,1.109,8.065
				c0.738,2.358,1.811,4.356,3.211,5.987c1.396,1.634,3.092,2.874,5.082,3.726C397.254,55.589,399.485,56.013,401.954,56.013z"/>
			<path fill="#FFFFFF" d="M435.538,21.73c1.041-0.85,2.197-1.701,3.471-2.552c1.275-0.851,2.646-1.619,4.111-2.304
				c1.467-0.688,3.025-1.243,4.688-1.668c1.654-0.426,3.402-0.639,5.236-0.639c1.18,0,2.328,0.131,3.453,0.392
				c1.121,0.262,2.145,0.68,3.062,1.256c0.916,0.576,1.719,1.324,2.402,2.242c0.686,0.92,1.193,2.036,1.521,3.354
				c1.1-0.933,2.311-1.84,3.643-2.717c1.332-0.878,2.738-1.651,4.221-2.325c1.48-0.673,3.047-1.207,4.689-1.604
				c1.646-0.397,3.361-0.598,5.146-0.598c1.479,0,2.881,0.19,4.195,0.574c1.316,0.387,2.473,1.012,3.455,1.874
				c0.988,0.863,1.771,1.976,2.35,3.332c0.574,1.357,0.861,3.025,0.861,5.002v33.623h-4.193V26.419c0-1.62-0.193-2.964-0.578-4.032
				c-0.387-1.071-0.928-1.921-1.627-2.551c-0.697-0.631-1.559-1.079-2.572-1.339c-1.014-0.261-2.152-0.394-3.414-0.394
				c-1.566,0-3.053,0.199-4.467,0.599c-1.412,0.396-2.771,0.925-4.074,1.584c-1.303,0.658-2.559,1.413-3.766,2.265
				c-1.207,0.851-2.389,1.728-3.539,2.635v33.787h-4.197V26.419c0-1.62-0.201-2.964-0.596-4.032
				c-0.398-1.071-0.959-1.921-1.686-2.551c-0.727-0.631-1.582-1.079-2.566-1.339c-0.986-0.261-2.068-0.394-3.246-0.394
				c-1.615,0-3.146,0.199-4.582,0.599c-1.439,0.396-2.814,0.925-4.127,1.584c-1.316,0.658-2.576,1.419-3.781,2.283
				c-1.205,0.865-2.369,1.767-3.492,2.696v33.705h-4.281V15.059h1.994c0.475,0,0.854,0.052,1.145,0.146
				c0.291,0.097,0.52,0.296,0.688,0.597c0.166,0.302,0.285,0.742,0.354,1.315c0.068,0.577,0.104,1.347,0.104,2.308v2.305H435.538z"
				/>
			<path fill="#FFFFFF" d="M504.762,37.163c0,6.201,1.402,10.864,4.217,13.992c2.811,3.128,6.977,4.691,12.49,4.691
				c1.756,0,3.342-0.124,4.756-0.371c1.408-0.247,2.682-0.581,3.807-1.009c1.125-0.425,2.104-0.911,2.943-1.46
				c0.834-0.549,1.541-1.11,2.115-1.688h1.854v3.086c-0.766,0.631-1.65,1.233-2.654,1.812c-1,0.574-2.154,1.099-3.455,1.562
				c-1.303,0.466-2.766,0.837-4.385,1.109c-1.619,0.273-3.428,0.412-5.432,0.412c-3.293,0-6.217-0.515-8.77-1.544
				c-2.551-1.027-4.697-2.503-6.438-4.423c-1.744-1.922-3.066-4.246-3.975-6.978c-0.902-2.729-1.355-5.798-1.355-9.199
				c0-3.457,0.484-6.578,1.461-9.36c0.973-2.785,2.326-5.158,4.053-7.121c1.73-1.961,3.787-3.472,6.174-4.524
				c2.389-1.058,4.98-1.586,7.779-1.586c2.688,0,5.145,0.397,7.367,1.192c2.223,0.797,4.123,2.028,5.697,3.703
				c1.578,1.675,2.801,3.81,3.664,6.399c0.865,2.591,1.299,5.674,1.299,9.239c0,0.438-0.018,0.863-0.041,1.275
				c-0.029,0.409-0.045,0.672-0.045,0.78h-33.127V37.163L504.762,37.163z M519.948,17.78c-2.031,0-3.91,0.334-5.639,1.009
				c-1.73,0.672-3.252,1.681-4.568,3.023c-1.314,1.343-2.4,3.031-3.252,5.062c-0.848,2.029-1.398,4.39-1.645,7.077h28.934
				c-0.084-2.936-0.469-5.425-1.154-7.469s-1.625-3.712-2.818-5.001c-1.193-1.291-2.627-2.229-4.301-2.82
				C523.831,18.074,521.979,17.78,519.948,17.78z"/>
			<path fill="#FFFFFF" d="M550.897,22.636c0.85-1.017,1.783-1.995,2.797-2.942c1.016-0.946,2.127-1.789,3.334-2.53
				s2.498-1.328,3.869-1.771c1.371-0.438,2.84-0.658,4.404-0.658c0.549,0,1.002,0.027,1.355,0.083
				c0.357,0.058,0.578,0.109,0.66,0.164v3.457c-0.193,0-0.4-0.013-0.619-0.039c-0.191,0-0.396-0.008-0.617-0.021
				c-0.219-0.015-0.424-0.021-0.617-0.021c-1.592,0-3.08,0.232-4.465,0.7s-2.682,1.092-3.891,1.871
				c-1.207,0.781-2.324,1.666-3.355,2.656c-1.025,0.985-1.98,2.002-2.857,3.045v32.348h-4.281V15.064h1.994
				c0.473,0,0.854,0.051,1.143,0.146c0.291,0.097,0.521,0.308,0.689,0.638c0.166,0.33,0.285,0.817,0.352,1.461
				c0.07,0.646,0.105,1.502,0.105,2.572V22.636L550.897,22.636z"/>
		</g>
	</g>
</g>
</svg>
