<?xml version="1.0" encoding="utf-8"?>
<!-- Generator: Adobe Illustrator 16.0.0, SVG Export Plug-In . SVG Version: 6.00 Build 0)  -->
<!DOCTYPE svg PUBLIC "-//W3C//DTD SVG 1.1//EN" "http://www.w3.org/Graphics/SVG/1.1/DTD/svg11.dtd">
<svg version="1.1" id="Layer_1" xmlns="http://www.w3.org/2000/svg" xmlns:xlink="http://www.w3.org/1999/xlink" x="0px" y="0px"
	 width="313.1px" height="58.389px" viewBox="0 0 313.1 58.389" enable-background="new 0 0 313.1 58.389" xml:space="preserve">
<g>
	<g>
		<path fill="#2E90CC" d="M286.697,53.762h-50.151V0h50.151V53.762z M240.546,49.762h42.151V4h-42.151V49.762L240.546,49.762z"/>
		<rect x="248.121" y="13.773" fill="#2E90CC" width="6.75" height="7.692"/>
		<rect x="258.168" y="13.773" fill="#2E90CC" width="6.75" height="7.692"/>
		<rect x="268.215" y="13.773" fill="#2E90CC" width="6.75" height="7.692"/>
		<rect x="248.121" y="23.819" fill="#2E90CC" width="6.75" height="7.692"/>
		<rect x="258.168" y="23.819" fill="#2E90CC" width="6.75" height="7.692"/>
		<rect x="268.215" y="23.819" fill="#2E90CC" width="6.75" height="7.692"/>
		<rect x="248.121" y="33.865" fill="#2E90CC" width="6.75" height="7.691"/>
		<rect x="258.168" y="33.865" fill="#2E90CC" width="6.75" height="15.541"/>
		<rect x="268.215" y="33.865" fill="#2E90CC" width="6.75" height="7.691"/>
	</g>
	<g>
		<path fill="#154984" d="M310.252,43.68h-23.868l0.634-9.979c0.127-1.094,1.008-3.061,3.475-3.061l16.05,0.01
			c0.94,0.121,2.763,0.885,2.919,2.896L310.252,43.68z M288.515,41.68h19.575l-0.624-7.979c-0.062-0.793-0.895-1.013-1.137-1.061
			h-15.837c-1.301,0-1.469,1.112-1.483,1.239L288.515,41.68z"/>
		<path fill="#154984" d="M309.701,41.689H286.92c-1.877,0-3.396,1.521-3.396,3.396v6.51c0,1.73,1.297,3.143,2.973,3.354v1.211
			c0,1.229,0.998,2.229,2.228,2.229c1.23,0,2.229-0.998,2.229-2.229v-1.168h14.788v1.168c0,1.229,0.998,2.229,2.229,2.229
			c1.231,0,2.229-0.998,2.229-2.229v-1.219c1.641-0.24,2.901-1.641,2.901-3.346v-6.51C313.098,43.21,311.578,41.689,309.701,41.689z
			 M288.279,48.033c-1.172,0-2.123-0.951-2.123-2.125s0.951-2.125,2.123-2.125c1.174,0,2.125,0.951,2.125,2.125
			S289.453,48.033,288.279,48.033z M308.34,48.033c-1.172,0-2.124-0.951-2.124-2.125s0.952-2.125,2.124-2.125
			c1.174,0,2.125,0.951,2.125,2.125S309.514,48.033,308.34,48.033z"/>
	</g>
	<g enable-background="new    ">
		<path fill="#2E90CC" d="M19.138,39.085c0,7.208-4.381,11.029-9.724,11.029C3.884,50.114,0,45.827,0,39.489
			c0-6.648,4.132-10.998,9.724-10.998C15.44,28.491,19.138,32.872,19.138,39.085z M2.89,39.427c0,4.474,2.423,8.481,6.679,8.481
			c4.287,0,6.71-3.945,6.71-8.698c0-4.163-2.175-8.513-6.679-8.513C5.126,30.697,2.89,34.829,2.89,39.427z"/>
		<path fill="#2E90CC" d="M22.555,39.645c0-1.926-0.062-3.479-0.125-4.908h2.454l0.125,2.578h0.062
			c1.119-1.833,2.889-2.92,5.344-2.92c3.635,0,6.369,3.075,6.369,7.643c0,5.405-3.293,8.077-6.835,8.077
			c-1.988,0-3.728-0.87-4.629-2.361h-0.062v8.171h-2.703V39.645z M25.258,43.652c0,0.403,0.062,0.776,0.124,1.118
			c0.497,1.896,2.144,3.2,4.101,3.2c2.889,0,4.567-2.361,4.567-5.81c0-3.014-1.584-5.592-4.474-5.592
			c-1.864,0-3.604,1.336-4.132,3.386c-0.093,0.342-0.187,0.746-0.187,1.118V43.652z"/>
		<path fill="#2E90CC" d="M53.84,42.13c0,5.562-3.853,7.984-7.487,7.984c-4.07,0-7.208-2.982-7.208-7.735
			c0-5.033,3.293-7.984,7.456-7.984C50.919,34.395,53.84,37.532,53.84,42.13z M41.91,42.285c0,3.293,1.895,5.778,4.567,5.778
			c2.609,0,4.567-2.454,4.567-5.84c0-2.548-1.274-5.779-4.505-5.779C43.308,36.444,41.91,39.427,41.91,42.285z"/>
		<path fill="#2E90CC" d="M57.288,39.427c0-1.771-0.031-3.293-0.124-4.69h2.393l0.093,2.951h0.124
			c0.684-2.02,2.33-3.293,4.163-3.293c0.311,0,0.528,0.031,0.777,0.093v2.579c-0.28-0.062-0.56-0.094-0.933-0.094
			c-1.926,0-3.293,1.46-3.666,3.511c-0.062,0.373-0.124,0.808-0.124,1.273v8.016h-2.703V39.427z"/>
		<path fill="#2E90CC" d="M71.485,30.418v4.318H75.4v2.081h-3.915v8.108c0,1.864,0.528,2.921,2.051,2.921
			c0.715,0,1.243-0.094,1.584-0.187l0.125,2.05c-0.528,0.218-1.367,0.373-2.424,0.373c-1.273,0-2.299-0.403-2.951-1.149
			c-0.776-0.808-1.056-2.144-1.056-3.914v-8.202h-2.33v-2.081h2.33v-3.604L71.485,30.418z"/>
		<path fill="#2E90CC" d="M91.058,45.672c0,1.553,0.031,2.92,0.125,4.101h-2.424l-0.155-2.454h-0.062
			c-0.715,1.212-2.3,2.796-4.971,2.796c-2.361,0-5.188-1.305-5.188-6.586v-8.792h2.733v8.325c0,2.858,0.87,4.785,3.355,4.785
			c1.833,0,3.106-1.274,3.604-2.485c0.155-0.404,0.249-0.901,0.249-1.398v-9.227h2.733V45.672z"/>
		<path fill="#2E90CC" d="M95.594,38.806c0-1.553-0.03-2.827-0.124-4.069h2.423l0.155,2.485h0.062
			c0.746-1.43,2.485-2.827,4.971-2.827c2.082,0,5.312,1.242,5.312,6.399v8.979h-2.733v-8.668c0-2.423-0.901-4.442-3.479-4.442
			c-1.803,0-3.2,1.273-3.666,2.796c-0.125,0.342-0.187,0.808-0.187,1.274v9.04h-2.734V38.806z"/>
		<path fill="#2E90CC" d="M115.881,30.511c0.031,0.933-0.652,1.678-1.74,1.678c-0.963,0-1.646-0.745-1.646-1.678
			c0-0.963,0.715-1.708,1.709-1.708C115.229,28.803,115.881,29.548,115.881,30.511z M112.836,49.772V34.736h2.734v15.036H112.836z"
			/>
		<path fill="#2E90CC" d="M133.092,27.715v18.174c0,1.336,0.031,2.858,0.124,3.884h-2.454l-0.124-2.609h-0.062
			c-0.839,1.678-2.672,2.951-5.126,2.951c-3.635,0-6.431-3.076-6.431-7.643c-0.031-5.002,3.075-8.077,6.741-8.077
			c2.299,0,3.853,1.087,4.536,2.299h0.062v-8.979H133.092z M130.357,40.856c0-0.342-0.03-0.808-0.124-1.149
			c-0.403-1.74-1.895-3.169-3.945-3.169c-2.827,0-4.505,2.485-4.505,5.81c0,3.044,1.491,5.561,4.442,5.561
			c1.833,0,3.511-1.211,4.008-3.262c0.094-0.373,0.124-0.746,0.124-1.181V40.856z"/>
		<path fill="#2E90CC" d="M145.954,49.772l-0.218-1.896h-0.093c-0.839,1.181-2.454,2.237-4.598,2.237
			c-3.045,0-4.599-2.144-4.599-4.318c0-3.635,3.231-5.623,9.041-5.592v-0.311c0-1.243-0.342-3.479-3.417-3.479
			c-1.398,0-2.858,0.435-3.915,1.118l-0.621-1.802c1.242-0.808,3.044-1.336,4.939-1.336c4.598,0,5.717,3.138,5.717,6.151v5.623
			c0,1.305,0.062,2.578,0.248,3.604H145.954z M145.55,42.099c-2.982-0.062-6.368,0.467-6.368,3.387c0,1.771,1.181,2.609,2.578,2.609
			c1.958,0,3.2-1.242,3.635-2.517c0.094-0.279,0.155-0.59,0.155-0.869V42.099z"/>
		<path fill="#2E90CC" d="M165.588,27.715v18.174c0,1.336,0.031,2.858,0.124,3.884h-2.454l-0.124-2.609h-0.062
			c-0.839,1.678-2.672,2.951-5.126,2.951c-3.635,0-6.431-3.076-6.431-7.643c-0.031-5.002,3.075-8.077,6.741-8.077
			c2.299,0,3.853,1.087,4.536,2.299h0.062v-8.979H165.588z M162.854,40.856c0-0.342-0.03-0.808-0.124-1.149
			c-0.403-1.74-1.895-3.169-3.945-3.169c-2.827,0-4.505,2.485-4.505,5.81c0,3.044,1.491,5.561,4.442,5.561
			c1.833,0,3.511-1.211,4.008-3.262c0.094-0.373,0.124-0.746,0.124-1.181V40.856z"/>
		<path fill="#2E90CC" d="M171.646,42.751c0.062,3.697,2.423,5.22,5.157,5.22c1.957,0,3.138-0.342,4.163-0.776l0.466,1.957
			c-0.963,0.435-2.609,0.932-5.002,0.932c-4.629,0-7.394-3.045-7.394-7.58c0-4.536,2.672-8.108,7.052-8.108
			c4.909,0,6.214,4.318,6.214,7.083c0,0.56-0.062,0.994-0.094,1.273H171.646z M179.662,40.794c0.031-1.739-0.715-4.442-3.79-4.442
			c-2.766,0-3.977,2.548-4.194,4.442H179.662z"/>
		<path fill="#2E90CC" d="M185.316,46.977c0.808,0.528,2.236,1.087,3.604,1.087c1.988,0,2.92-0.994,2.92-2.236
			c0-1.305-0.776-2.02-2.796-2.766c-2.703-0.963-3.977-2.454-3.977-4.256c0-2.423,1.957-4.411,5.188-4.411
			c1.522,0,2.858,0.435,3.696,0.932l-0.683,1.988c-0.591-0.373-1.678-0.87-3.076-0.87c-1.615,0-2.517,0.933-2.517,2.051
			c0,1.243,0.901,1.802,2.858,2.548c2.609,0.994,3.945,2.299,3.945,4.535c0,2.641-2.05,4.505-5.623,4.505
			c-1.646,0-3.169-0.403-4.225-1.025L185.316,46.977z"/>
	</g>
</g>
</svg>
