<?xml version="1.0" encoding="utf-8"?>
<!-- Generator: Adobe Illustrator 16.0.0, SVG Export Plug-In . SVG Version: 6.00 Build 0)  -->
<!DOCTYPE svg PUBLIC "-//W3C//DTD SVG 1.1//EN" "http://www.w3.org/Graphics/SVG/1.1/DTD/svg11.dtd">
<svg version="1.1" id="Layer_1" xmlns="http://www.w3.org/2000/svg" xmlns:xlink="http://www.w3.org/1999/xlink" x="0px" y="0px"
	 width="100px" height="100px" viewBox="0 0 100 100" enable-background="new 0 0 100 100" xml:space="preserve">
<g>
	<path fill="#FFFFFF" d="M89.637,70.073H10.539V13.122h79.098V70.073z M15.951,64.662h68.275V18.533H15.951V64.662z"/>
	<rect x="20.897" y="25.089" fill="#FFFFFF" width="57.58" height="31.81"/>
	<path fill="#FFFFFF" d="M99.57,86.18H0.608V68.02H99.57V86.18z M6.02,80.768h88.138V73.43H6.02V80.768z"/>
	<path fill="#FFFFFF" d="M69.26,84.021h-5.424V71.3h5.424V84.021z M66.543,81.314h0.01l-0.01-7.311V81.314z"/>
	<path fill="#FFFFFF" d="M78.925,84.021h-5.428V71.3h5.428V84.021z M76.203,81.314h0.016l-0.016-7.311V81.314z"/>
	<path fill="#FFFFFF" d="M88.585,84.021h-5.422V71.3h5.422V84.021z M85.87,81.314h0.01l-0.01-7.311V81.314z"/>
</g>
</svg>
