<?xml version="1.0" encoding="utf-8"?>
<!-- Generator: Adobe Illustrator 16.0.0, SVG Export Plug-In . SVG Version: 6.00 Build 0)  -->
<!DOCTYPE svg PUBLIC "-//W3C//DTD SVG 1.1//EN" "http://www.w3.org/Graphics/SVG/1.1/DTD/svg11.dtd">
<svg version="1.1" id="Layer_1" xmlns="http://www.w3.org/2000/svg" xmlns:xlink="http://www.w3.org/1999/xlink" x="0px" y="0px"
	 width="100px" height="100px" viewBox="0 0 100 100" enable-background="new 0 0 100 100" xml:space="preserve">
<g>
	<path fill="#C6C7C8" d="M91.593,35.798H71.457V12.307C71.457,8.26,68.146,5,64.098,5h-27.13c-4.051,0-7.254,3.26-7.254,7.307
		v23.489h-4.958v-3.612c0-1.661-1.278-3.061-2.941-3.061h-9.375c-1.663,0-3.084,1.399-3.084,3.061v3.588
		c-3.934,0.024-7.186,3.297-7.186,7.329v44.728c0,4.05,3.252,7.331,7.304,7.331h82.12c4.047,0,7.407-3.281,7.407-7.331V43.102
		C99,39.053,95.64,35.798,91.593,35.798z M36.213,14c0-1.663,1.351-3.015,3.012-3.015h22.546c1.665,0,3.014,1.352,3.014,3.015v2.702
		c0,1.66-1.349,3.012-3.014,3.012H39.225c-1.661,0-3.012-1.352-3.012-3.012V14z M50.532,90.555c-13.834,0-25.09-11.256-25.09-25.086
		c0-13.835,11.256-25.09,25.09-25.09c13.835,0,25.088,11.255,25.088,25.09C75.62,79.299,64.367,90.555,50.532,90.555z"/>
	<path fill="#C6C7C8" d="M50.532,49.177c-8.983,0-16.291,7.308-16.291,16.292c0,8.985,7.308,16.287,16.291,16.287
		c8.983,0,16.291-7.302,16.291-16.287C66.823,56.485,59.516,49.177,50.532,49.177z"/>
</g>
</svg>
