<?xml version="1.0" encoding="utf-8"?>
<!-- Generator: Adobe Illustrator 16.0.0, SVG Export Plug-In . SVG Version: 6.00 Build 0)  -->
<!DOCTYPE svg PUBLIC "-//W3C//DTD SVG 1.1//EN" "http://www.w3.org/Graphics/SVG/1.1/DTD/svg11.dtd">
<svg version="1.1" id="Layer_1" xmlns="http://www.w3.org/2000/svg" xmlns:xlink="http://www.w3.org/1999/xlink" x="0px" y="0px"
	 width="100px" height="100px" viewBox="0 0 100 100" enable-background="new 0 0 100 100" xml:space="preserve">
<g>
	<path fill="#C6C7C8" d="M62.743,11.07l-9.374,9.376l-4.017,4.017c-4.143,4.14-4.83,10.279-1.295,14.683l-8.167,8.17
		c-4.419-3.335-10.587-2.803-14.647,1.253l-4.013,4.017l-9.375,9.373l-6.697,6.693C0.725,73.086,0.243,79.81,4.679,84.239l4.5,4.501
		l6.507,6.51l0.188,0.187l0.012-0.01c4.411,4.207,10.349,3.038,14.72-1.328l6.694-6.696l13.39-13.387
		c4.056-4.061,4.729-10.089,1.253-14.646l8.169-8.175c4.452,3.588,10.544,2.852,14.686-1.286l13.388-13.392l6.692-6.696
		c4.176-4.169,4.927-10.295,1.299-14.69l0.045-0.042l-0.758-0.757l-0.004-0.006l-5.935-5.931l-4.262-4.256
		C80.833-0.294,73.865-0.05,69.438,4.381V4.374L62.743,11.07z M47.339,62.629c2.221,2.218,1.553,5.144-0.671,7.369L26.586,90.082
		c-2.216,2.216-5.147,2.884-7.368,0.668l-2.143-2.146l-3.88-3.883l-1.87-1.871l-2.146-2.146c-2.22-2.216-2.22-5.812-0.004-8.029
		l20.088-20.088c2.221-2.22,5.818-2.22,8.036,0l4.02,4.018L47.339,62.629z M90.861,25.806L70.777,45.891
		c-2.219,2.217-5.146,2.885-7.361,0.666l-6.03-6.022l-4.017-4.017c-2.218-2.22-2.225-5.814-0.003-8.039L73.452,8.394
		c2.224-2.216,5.816-2.216,8.037,0l2.144,2.142l1.877,1.875l3.884,3.889l2.141,2.141C93.752,20.656,93.081,23.583,90.861,25.806z"/>
</g>
</svg>
