<?xml version="1.0" encoding="utf-8"?>
<!-- Generator: Adobe Illustrator 16.0.0, SVG Export Plug-In . SVG Version: 6.00 Build 0)  -->
<!DOCTYPE svg PUBLIC "-//W3C//DTD SVG 1.1//EN" "http://www.w3.org/Graphics/SVG/1.1/DTD/svg11.dtd">
<svg version="1.1" id="Layer_1" xmlns="http://www.w3.org/2000/svg" xmlns:xlink="http://www.w3.org/1999/xlink" x="0px" y="0px"
	 width="100px" height="100px" viewBox="0 0 100 100" enable-background="new 0 0 100 100" xml:space="preserve">
<g>
	<path fill="#C6C7C8" d="M50.002,0.939C22.981,0.939,1,22.92,1,49.942c0,14.926,5.005,27.492,14.471,36.337
		c8.742,8.167,21.002,12.666,34.531,12.666c27.02,0,49.004-21.983,49.004-49.003C99.007,22.92,77.022,0.939,50.002,0.939z
		 M50.002,94.045C25.646,94.045,5.9,78.495,5.9,49.942c0-24.358,19.745-44.103,44.102-44.103s44.104,19.745,44.104,44.103
		C94.106,74.301,74.359,94.045,50.002,94.045z M49.189,76.894c-1.357,0-2.451,1.1-2.451,2.451v4.9c0,1.354,1.094,2.448,2.451,2.448
		c1.35,0,2.448-1.095,2.448-2.448v-4.9C51.637,77.993,50.539,76.894,49.189,76.894z M20.602,48.311h-4.901
		c-1.35,0-2.45,1.097-2.45,2.451c0,1.35,1.1,2.45,2.45,2.45h4.901c1.355,0,2.451-1.101,2.451-2.45
		C23.053,49.408,21.957,48.311,20.602,48.311z M24.018,72.47c-0.958,0.955-0.958,2.505,0,3.464c0.956,0.956,2.505,0.956,3.462,0
		c0.956-0.959,0.956-2.509,0-3.464C26.523,71.513,24.974,71.513,24.018,72.47z M24.018,23.957c-0.958,0.956-0.958,2.505,0,3.462
		c0.956,0.956,2.505,0.956,3.462,0c0.956-0.958,0.956-2.506,0-3.462C26.523,23,24.974,23,24.018,23.957z M84.306,48.311h-4.9
		c-1.352,0-2.45,1.097-2.45,2.451c0,1.35,1.099,2.45,2.45,2.45h4.9c1.356,0,2.448-1.101,2.448-2.45
		C86.754,49.408,85.662,48.311,84.306,48.311z M72.527,72.47c-0.958,0.955-0.958,2.505,0,3.464c0.954,0.956,2.505,0.956,3.464,0
		c0.956-0.959,0.956-2.509,0-3.464C75.032,71.513,73.481,71.513,72.527,72.47z M49.189,22.992c1.35,0,2.448-1.097,2.448-2.451V15.64
		c0-1.352-1.098-2.45-2.448-2.45c-1.357,0-2.451,1.098-2.451,2.45v4.901C46.738,21.895,47.832,22.992,49.189,22.992z M39.552,32.653
		c-1.902-1.906-5.023-1.906-6.929,0c-1.906,1.903-1.906,5.023,0,6.93l10.021,10.02c0.093-1.826,0.816-3.531,2.111-4.824l3.463-3.466
		L39.552,32.653z M77.674,22.254v-0.003c-0.953-0.949-2.208-1.428-3.468-1.428c-1.252,0-2.507,0.479-3.462,1.428L49.979,43.016
		l-0.029-0.026l-3.461,3.491c-0.957,0.953-1.433,2.221-1.429,3.485c-0.004,1.255,0.472,2.518,1.429,3.476
		c0.953,0.95,2.209,1.426,3.465,1.426c1.253,0,2.511-0.476,3.463-1.426l24.256-24.257C79.577,27.279,79.581,24.157,77.674,22.254z"
		/>
</g>
</svg>
