<?xml version="1.0" encoding="utf-8"?>
<!-- Generator: Adobe Illustrator 16.0.0, SVG Export Plug-In . SVG Version: 6.00 Build 0)  -->
<!DOCTYPE svg PUBLIC "-//W3C//DTD SVG 1.1//EN" "http://www.w3.org/Graphics/SVG/1.1/DTD/svg11.dtd">
<svg version="1.1" id="Layer_1" xmlns="http://www.w3.org/2000/svg" xmlns:xlink="http://www.w3.org/1999/xlink" x="0px" y="0px"
	 width="100px" height="100px" viewBox="0 0 100 100" enable-background="new 0 0 100 100" xml:space="preserve">
<g>
	<path fill="#C6C7C8" d="M50.05,1L27.072,23.756v-8.083c0-2.699-2.188-5.698-4.893-5.698H10.875c-2.703,0-4.987,2.999-4.987,5.698
		v29.269L1,49.829v48.936c1.084,0,97.732-0.024,97.765,0V49.98L50.05,1z M93.876,93.075H59.645l0.016,0.664V69.438
		c0-2.698-2.188-5.691-4.889-5.691h-9.699c-2.702,0-4.968,2.993-4.968,5.691v24.302l0.09-0.664H5.889V51.999L50.038,7.922
		l43.838,44.077V93.075z"/>
</g>
</svg>
