<?xml version="1.0" encoding="utf-8"?>
<!-- Generator: Adobe Illustrator 16.0.0, SVG Export Plug-In . SVG Version: 6.00 Build 0)  -->
<!DOCTYPE svg PUBLIC "-//W3C//DTD SVG 1.1//EN" "http://www.w3.org/Graphics/SVG/1.1/DTD/svg11.dtd">
<svg version="1.1" id="Layer_1" xmlns="http://www.w3.org/2000/svg" xmlns:xlink="http://www.w3.org/1999/xlink" x="0px" y="0px"
	 width="100px" height="100px" viewBox="0 0 100 100" enable-background="new 0 0 100 100" xml:space="preserve">
<g>
	<path fill="#C6C7C8" d="M96.715,87.019h0.009L68.231,58.193c3.87-5.822,6.128-12.98,6.128-20.5
		c0-20.306-16.461-36.845-36.768-36.845c-20.306,0-36.765,16.416-36.765,36.721c0,20.311,16.459,36.745,36.765,36.745
		c7.478,0,14.799-2.241,20.594-6.071l28.878,28.497v-0.006c4.003,2.868,7.155,3.205,10.027,0.339
		C99.949,94.2,99.586,87.019,96.715,87.019z M37.591,64.494c-14.864,0-26.964-12.097-26.964-26.964
		c0-14.867,12.1-26.962,26.964-26.962c14.866,0,26.961,12.096,26.961,26.962C64.553,52.397,52.457,64.494,37.591,64.494z"/>
</g>
</svg>
