<?xml version="1.0" encoding="utf-8"?>
<!-- Generator: Adobe Illustrator 16.0.0, SVG Export Plug-In . SVG Version: 6.00 Build 0)  -->
<!DOCTYPE svg PUBLIC "-//W3C//DTD SVG 1.1//EN" "http://www.w3.org/Graphics/SVG/1.1/DTD/svg11.dtd">
<svg version="1.1" id="Layer_1" xmlns="http://www.w3.org/2000/svg" xmlns:xlink="http://www.w3.org/1999/xlink" x="0px" y="0px"
	 width="100px" height="100px" viewBox="0 0 100 100" enable-background="new 0 0 100 100" xml:space="preserve">
<g>
	<path fill="#C6C7C8" d="M94.483,15.948c-14.007,0-74.248,0-88.771,0c-3.212,0-4.798,1.988-4.798,5.159v63.046h98.341
		c0,0,0-61.172,0-63.046C99.255,17.936,97.669,15.948,94.483,15.948z M31.597,47.383L5.671,74.67V24.14L31.597,47.383z
		 M9.419,20.707H90.75L50.085,57.165L9.419,20.707z M35.141,50.359l14.944,13.498L64.214,51.04L92.72,79.394H7.367L35.141,50.359z
		 M67.761,48.108L94.498,24.14v50.706L67.761,48.108z"/>
</g>
</svg>
