<?xml version="1.0" encoding="utf-8"?>
<!-- Generator: Adobe Illustrator 16.0.0, SVG Export Plug-In . SVG Version: 6.00 Build 0)  -->
<!DOCTYPE svg PUBLIC "-//W3C//DTD SVG 1.1//EN" "http://www.w3.org/Graphics/SVG/1.1/DTD/svg11.dtd">
<svg version="1.1" id="Layer_1" xmlns="http://www.w3.org/2000/svg" xmlns:xlink="http://www.w3.org/1999/xlink" x="0px" y="0px"
	 width="100px" height="100px" viewBox="0 0 100 100" enable-background="new 0 0 100 100" xml:space="preserve">
<g>
	<path fill="#C6C7C8" d="M48.616,0.164c17.216-0.601,34.439,6.742,35.098,25.707c0.612,17.485-19.191,24.908-23.271,31.376
		c-3.064,4.82-1.76,11.372-10.636,11.682c-5.783,0.202-8.771-4.402-8.923-8.705c-0.56-16.009,22.849-20.462,22.392-33.641
		c-0.253-7.26-5.243-11.394-13.313-11.11c-17.215,0.599-9.872,18.116-22.915,18.571c-4.708,0.162-8.844-2.521-9.03-7.897
		C17.556,12.968,32.211,0.735,48.616,0.164z M50.652,77.651c6.05-0.21,11.202,4.592,11.413,10.646
		c0.21,6.05-4.589,11.2-10.643,11.41c-6.053,0.215-11.205-4.59-11.416-10.64C39.797,83.019,44.6,77.859,50.652,77.651z"/>
</g>
</svg>
